<svg xmlns="http://www.w3.org/2000/svg" xmlns:xlink="http://www.w3.org/1999/xlink" width="179.275" height="249.448" viewBox="0 0 179.275 249.448"><defs><linearGradient id="linear-gradient" x1=".125" x2=".863" y2="1.019" gradientUnits="objectBoundingBox"><stop offset="0" stop-color="#c4c7ca"/><stop offset="1" stop-color="#aab0b5"/></linearGradient></defs><g id="unknownAvatarDepth" transform="translate(-241.796 -313)"><rect id="background" width="179" height="248" fill="url(#linear-gradient)" transform="translate(242 313)"/><g id="unknownAvatar"><g id="avatar" transform="translate(-158 -1)"><g id="body"><path id="Path_4" fill="#f7f9fa" d="M-.541,1.451C1.308-1.963,59,0,59,0l.116,88.383H-61.2V45.71s40.4-13.183,46.616-16.781c1.617-2.944,7.832-8.505,12.412-10.468C.114,17.153-2.39,4.865-.541,1.451Z" data-name="Path 4" transform="translate(461 475)"/><path id="Path_5" fill="#f7f9fa" d="M-.195,1.451C-2.044-1.963-59.731,0-59.731,0V88.448H60.07v-41.9s-40-14.02-46.218-17.618C12.236,25.985,6.02,20.424,1.441,18.461-.849,17.153,1.654,4.865-.195,1.451Z" data-name="Path 5" transform="translate(519 475)"/></g><g id="head" transform="translate(-1)"><path id="Path_1" fill="#f7f9fa" d="M48.353,3.033c29.768-.327,55.441,22.731,46.76,66.467s-14.692,67.653-46.76,67.653S13.333,117.834,0,69.5,18.586,3.36,48.353,3.033Z" data-name="Path 1" transform="translate(442 355)"/><path id="Path_2" fill="#f7f9fa" d="M5.471,5.083c1.779,0,4.177,3.662,5.131,8.486,1.355,5.056-.27,10.74-.382,15-.242,9.209-.126,12.374-6.39,7.779s-7.706-.883-7.706-13.586S2.158,5.083,5.471,5.083Z" data-name="Path 2" transform="matrix(0.951, 0.309, -0.309, 0.951, 534.323, 420.295)"/><path id="Path_56" fill="#f7f9fa" d="M8.729,33.14c1.779,0,4.177-3.662,5.131-8.486,1.355-5.056-.27-10.74-.382-15-.242-9.209-.126-12.374-6.39-7.779S-.618,2.754-.618,15.456,5.415,33.14,8.729,33.14Z" data-name="Path 56" transform="matrix(-0.94, 0.342, -0.342, -0.94, 461.047, 455.14)"/><g id="hair" transform="translate(158 1)"><path id="Path_6" fill="#f7f9fa" d="M4.129,1.777c5.1-5.75,15.307-.4,15.307-.4S8.5.967,5.668,3.316Z" data-name="Path 6" transform="translate(295.101 366.657) rotate(-45)"/><path id="Path_7" fill="#f7f9fa" d="M3.059.785c3.018-5.012,28.306.587,28.306.587S10.711-1.2,5.668,1.152Z" data-name="Path 7" transform="translate(305.186 356.51) rotate(-8)"/><path id="Path_8" fill="#f7f9fa" d="M-1.213.4a16.238,16.238,0,0,0,16.52,1.542S4.533,2.132,1.539,0Z" data-name="Path 8" transform="translate(297.969 366.177) rotate(150)"/><path id="Path_9" fill="#f7f9fa" d="M-1.213.47C7.593,9.545,17.961,1.1,17.961,1.1S5.647,3.747,1.539,0Z" data-name="Path 9" transform="translate(293.316 370.235) rotate(129)"/><path id="Path_10" fill="#f7f9fa" d="M-1.151,1.032C2.817,8.812,25.733-.843,25.733-.843S6.529,2.9,2.42-.85Z" data-name="Path 10" transform="matrix(-0.358, 0.934, -0.934, -0.358, 288.412, 378.292)"/><path id="Path_11" fill="#f7f9fa" d="M10.555-1.3c3.968,7.78,15.13-.244,15.13-.244s-9.4,3.431-13.505-.316Z" data-name="Path 11" transform="matrix(-0.326, 0.946, -0.946, -0.326, 288.029, 388.093)"/><path id="Path_21" fill="#f7f9fa" d="M53.219-5.342c7.426,0,18.425,3.074,25.322,6.445C89.459,6.438,93.723,14.971,96.2,19.094c4.061,7.9,5.787,15.778,5.561,30.1-.1,4.571-.772,13.121-1.953,13.273C86.427,64.2,51.059,32.339,36.439,32.339c-19.856,0-34.387,15.259-34.974-5.5C1.25,19.215,7.651,12.016,15.681,6.226c5.685-4.1,3.486-7.191,9.928-9.277C33.315-5.548,46.229-5.342,53.219-5.342Z" data-name="Path 21" transform="translate(279 361)"/><path id="Path_22" fill="#f7f9fa" d="M9.114-10.219l8.147,2.452S4.095-.774-1.131-.111c-1.717.218-4.5.407-3.6-3.71S9.114-10.219,9.114-10.219Z" data-name="Path 22" transform="matrix(0.788, -0.616, 0.616, 0.788, 286.733, 383.224)"/><path id="Path_23" fill="#f7f9fa" d="M9.114-10.219S20.781-4.732,21.366-4.05s3.593,3.7,7.971,8.687C27.62,4.855-3.122-4.786-3.539-4.9.568-10.3,9.114-10.219,9.114-10.219Z" data-name="Path 23" transform="matrix(0.788, -0.616, 0.616, 0.788, 304.733, 370.224)"/><path id="Path_24" fill="#f7f9fa" d="M16.045-10.906s8.371.116,9.834,1.137,1.912,4.226,6.29,9.212C30.452-.34-7.867-5.824-8.284-5.937-4.177-11.337,16.045-10.906,16.045-10.906Z" data-name="Path 24" transform="translate(291.418 412.878) rotate(-92)"/><path id="Path_25" fill="#f7f9fa" d="M0,2.719C4.06-3.521,16.65,3.85,16.65,3.85S5.866.162,1.662,3.168Z" data-name="Path 25" transform="matrix(0.875, 0.485, -0.485, 0.875, 362.225, 366.403)"/><path id="Path_26" fill="#f7f9fa" d="M0,3.39c3.968-7.78,14.809.266,14.809.266S5.733.2,1.624,3.949Z" data-name="Path 26" transform="translate(358.194 362.116) rotate(25)"/><path id="Path_28" fill="#f7f9fa" d="M0,3.019C4.227-5.07,15.622,4.138,15.622,4.138S5.733.18,1.624,3.517Z" data-name="Path 28" transform="matrix(0.985, 0.174, -0.174, 0.985, 352.121, 359.804)"/><path id="Path_29" fill="#f7f9fa" d="M0,3.39c3.968-7.78,15.442.817,15.442.817A19.418,19.418,0,0,0,6.063,8.68Z" data-name="Path 29" transform="translate(355.638 360.869) rotate(18)"/><path id="Path_30" fill="#f7f9fa" d="M0,3.39c3.968-7.78,14.809.266,14.809.266S5.733.2,1.624,3.949Z" data-name="Path 30" transform="matrix(0.996, 0.087, -0.087, 0.996, 347.866, 358.422)"/><path id="Path_31" fill="#f7f9fa" d="M0,3.39c3.968-7.78,14.809.266,14.809.266S5.733.2,1.624,3.949Z" data-name="Path 31" transform="matrix(0.996, 0.087, -0.087, 0.996, 345.866, 357.422)"/><path id="Path_32" fill="#f7f9fa" d="M0,4.644C1.329.711,3.529.867,6.044.959a7.846,7.846,0,0,1,2.035.393C11.618,2.381,16.045,6.2,16.045,6.2S5.733-.166,1.624,5.488Z" data-name="Path 32" transform="translate(366.577 370.87) rotate(28)"/><path id="Path_33" fill="#f7f9fa" d="M0,6.809C3.344-3.75,29.1,4.569,29.1,4.569S20.633,4.037,3.122,8.077Z" data-name="Path 33" transform="translate(334.556 352.213) rotate(9)"/><path id="Path_34" fill="#f7f9fa" d="M10.555-1.3c3.968,7.78,14.809-.266,14.809-.266S16.288,1.89,12.179-1.857Z" data-name="Path 34" transform="translate(291.152 369.541) rotate(120)"/><path id="Path_35" fill="#f7f9fa" d="M10.555-1.3c3.968,7.78,14.809-.266,14.809-.266S16.288,1.89,12.179-1.857Z" data-name="Path 35" transform="translate(288.434 394.895) rotate(107)"/><path id="Path_36" fill="#f7f9fa" d="M10.555-1.3c3.968,7.78,14.809-.266,14.809-.266S16.288,1.89,12.179-1.857Z" data-name="Path 36" transform="translate(289.434 398.895) rotate(107)"/><path id="Path_37" fill="#f7f9fa" d="M0,3.39C1.329.784,3.529.887,6.044.948,10.114,1.032,16.6,4.42,16.6,4.42S5.733.2,1.624,3.949Z" data-name="Path 37" transform="translate(374.005 379.225) rotate(50)"/><path id="Path_38" fill="#f7f9fa" d="M0,3.39C1.329.784,3.529.887,6.044.948c4.07.084,10.616,3.446,10.616,3.446S5.733.2,1.624,3.949Z" data-name="Path 38" transform="translate(378.977 387.723) rotate(65)"/><path id="Path_39" fill="#f7f9fa" d="M-2.258,6.481C-.293.725,10.928,2.025,14.645,2.159A89.741,89.741,0,0,1,26.981,3.566,123.508,123.508,0,0,1,13.248,5.411C8.934,5.7,4.941,4.143,2.4,7.6Z" data-name="Path 39" transform="matrix(0.017, 1, -1, 0.017, 383.122, 392.883)"/><path id="Path_40" fill="#f7f9fa" d="M0,3.39C1.329.784,3.529.887,6.044.948a18.814,18.814,0,0,1,7.882,2.286S5.733.2,1.624,3.949Z" data-name="Path 40" transform="translate(379.927 400.669) rotate(72)"/><path id="Path_41" fill="#f7f9fa" d="M0,3.39C1.053,2.645,3.515.574,6.029.635,8.663.5,13.9,3.242,13.9,3.242S5.733.2,1.624,3.949Z" data-name="Path 41" transform="translate(379.248 395.696) rotate(67)"/><path id="Path_42" fill="#f7f9fa" d="M0,3.39C1.329.784,3.529.887,6.044.948c4.07.084,8.765,2.708,8.765,2.708S5.733.2,1.624,3.949Z" data-name="Path 42" transform="matrix(0.375, 0.927, -0.927, 0.375, 379.383, 391.686)"/><path id="Path_43" fill="#f7f9fa" d="M0,3.39C1.329.784,3.529.887,6.044.948c4.07.084,8.641,2.54,8.641,2.54S5.733.2,1.624,3.949Z" data-name="Path 43" transform="translate(378.791 406.67) rotate(71)"/><path id="Path_44" fill="#f7f9fa" d="M0,3.39C1.329.784,3.529.887,6.044.948c4.07.084,8.765,2.708,8.765,2.708S5.733.2,1.624,3.949Z" data-name="Path 44" transform="translate(378.927 404.669) rotate(72)"/><path id="Path_45" fill="#f7f9fa" d="M0,4.644C1.329.711,3.529.867,6.044.959,10.114,1.085,16,6.049,16,6.049S5.733-.166,1.624,5.488Z" data-name="Path 45" transform="translate(369.029 374.534) rotate(32)"/><path id="Path_46" fill="#f7f9fa" d="M0,4.644C1.329.711,3.529.867,6.044.959c4.07.126,8.765,4.087,8.765,4.087S5.733-.166,1.624,5.488Z" data-name="Path 46" transform="matrix(0.755, 0.656, -0.656, 0.755, 367.125, 367.899)"/><path id="Path_48" fill="#f7f9fa" d="M0,3.39C3.968-4.39,16.126,5.107,16.126,5.107S5.733.2,1.624,3.949Z" data-name="Path 48" transform="matrix(0.966, 0.259, -0.259, 0.966, 358.429, 365.211)"/><path id="Path_49" fill="#f7f9fa" d="M0,3.39C1.329.784,3.529.887,6.044.948c4.07.084,8.765,2.708,8.765,2.708S5.733.2,1.624,3.949Z" data-name="Path 49" transform="matrix(0.588, 0.809, -0.809, 0.588, 373.517, 377.041)"/><path id="Path_50" fill="#f7f9fa" d="M0,3.39C1.329.784,3.529.887,6.044.948c4.07.084,8.765,2.708,8.765,2.708S5.733.2,1.624,3.949Z" data-name="Path 50" transform="translate(379.877 386.731) rotate(79)"/><path id="Path_51" fill="#f7f9fa" d="M0,3.39C1.329.784,3.737.589,6.252.65c4.07.084,8.557,3.006,8.557,3.006S5.733.2,1.624,3.949Z" data-name="Path 51" transform="translate(381.464 410.104) rotate(91)"/><path id="Path_52" fill="#f7f9fa" d="M0,6.809c3.647-8.63,26.291-2.719,26.3-.761S11.018-.419,3.122,8.077Z" data-name="Path 52" transform="translate(337.556 353.213) rotate(9)"/><path id="Path_53" fill="#f7f9fa" d="M10.105,1.651c3.023,2.042,11.758-2.3,11.758-2.3s-5.695.627-6.7-.733Z" data-name="Path 53" transform="translate(288.619 386.689) rotate(115)"/><path id="Path_54" fill="#f7f9fa" d="M11.089-3.744c3.968,7.78,14.3,2.309,14.3,2.309S16.041.674,13.281-3.836Z" data-name="Path 54" transform="translate(291.152 363.541) rotate(120)"/><path id="Path_55" fill="#f7f9fa" d="M-.178,5.622c13-5.595,29.4-3.441,29.4-3.441s-9.029.164-26.541,4.2Z" data-name="Path 55" transform="translate(320.556 350.213) rotate(9)"/></g></g></g></g></g></svg>